<?xml version="1.0" encoding="utf-8"?>
<svg viewBox="6.582 4.23 22.826 26.599" fill="none" xmlns="http://www.w3.org/2000/svg">
  <path d="M10.2111 17.1249C10.0905 17.1774 9.9751 17.2411 9.86658 17.3154L9.83166 17.344C9.81799 17.3528 9.80523 17.3629 9.79356 17.3742C7.49963 19.1585 6.2709 22.035 6.92495 24.9179C7.29428 26.5711 8.22223 28.0465 9.55242 29.0953C10.8826 30.1441 12.5337 30.7023 14.2274 30.6758H14.4862C15.5967 30.6283 16.682 30.3303 17.6611 29.8042C18.6402 29.278 19.4876 28.5373 20.14 27.6374C20.7924 26.7375 21.2329 25.7018 21.4285 24.6076C21.6241 23.5135 21.5697 22.3893 21.2696 21.3191C20.9759 20.2666 20.3647 19.2966 19.8297 18.3505C18.8899 16.6889 17.948 15.0278 17.004 13.3673C16.7246 12.8768 16.442 12.3894 16.1658 11.8989C15.8022 11.2512 15.2323 10.5463 15.2021 9.778C15.172 9.00965 15.7975 8.26829 16.5626 8.12065C18.0041 7.84602 18.6804 9.40811 18.6835 9.40653C18.8585 9.82476 19.1856 10.161 19.599 10.3473C20.0123 10.5335 20.4809 10.556 20.9101 10.41C21.3393 10.2641 21.6971 9.96059 21.9112 9.56097C22.1252 9.16134 22.1796 8.69535 22.0633 8.25718C21.7104 7.10459 20.973 6.10781 19.9742 5.43303C19.0958 4.80476 18.0376 4.47784 16.9579 4.50117C16.2033 4.50532 15.4578 4.6667 14.769 4.97502C14.0802 5.28333 13.4632 5.73182 12.9574 6.29186C12.3826 6.93421 11.9708 7.70541 11.7566 8.54038C11.5425 9.37534 11.5324 10.2496 11.7271 11.0893C11.8049 11.4046 11.9112 11.7123 12.0446 12.0084C12.424 12.8689 12.9812 13.6531 13.4511 14.4675C14.0279 15.4676 14.6047 16.4682 15.1815 17.4694C15.7583 18.4706 16.3404 19.476 16.9278 20.4857C17.404 21.3207 17.9231 22.0509 17.9755 23.0542C17.9976 23.5894 17.9087 24.1234 17.7143 24.6225C17.52 25.1216 17.2244 25.5751 16.8463 25.9545C16.4681 26.3338 16.0156 26.6308 15.517 26.8267C15.0185 27.0226 14.4849 27.1132 13.9496 27.0928C12.0922 27.0087 10.6905 25.6323 10.4079 23.8321C10.0539 21.5588 11.824 20.311 11.824 20.311C12.197 20.0916 12.4778 19.7444 12.6144 19.3337C12.751 18.9231 12.7341 18.4769 12.5669 18.0777C12.3997 17.6786 12.0934 17.3535 11.7049 17.1629C11.3164 16.9722 10.872 16.9289 10.454 17.0408C10.374 17.0633 10.2955 17.0909 10.219 17.1233" fill="#040000" transform="matrix(1, 0, 0, 1, 0, -2.220446049250313e-16)"/>
  <path d="M29.2501 23.3193C29.2506 22.6778 29.1975 22.0374 29.0913 21.4048C28.9262 20.4069 28.6166 19.4384 28.1722 18.5298C27.9055 17.9885 27.5689 17.4471 27.0419 17.1519C26.778 17.0031 26.4799 16.9256 26.177 16.9269C25.874 16.9282 25.5766 17.0083 25.314 17.1593C25.0514 17.3103 24.8326 17.527 24.6791 17.7882C24.5255 18.0494 24.4426 18.346 24.4384 18.6489C24.4241 19.3172 24.7861 19.9189 25.0559 20.5348C25.5045 21.5614 25.7077 22.6784 25.6492 23.7972C25.5908 24.916 25.2724 26.0058 24.7194 26.9801C24.6855 27.0379 24.6552 27.0978 24.6289 27.1594C24.5165 27.4213 24.4577 27.7031 24.4559 27.9881C24.4676 28.3969 24.6197 28.7891 24.8865 29.099C25.1533 29.4089 25.5186 29.6176 25.9211 29.6899C26.9069 29.8661 27.6896 29.1263 28.1039 28.3009C28.8655 26.7511 29.2578 25.046 29.2501 23.3193Z" fill="#040000" transform="matrix(1, 0, 0, 1, 0, -2.220446049250313e-16)"/>
  <path d="M20.5645 11.583C20.5318 11.5892 20.4995 11.5972 20.4677 11.6068C20.4027 11.6249 20.3442 11.6611 20.299 11.711C20.2537 11.761 20.2235 11.8228 20.2119 11.8892C20.2003 11.9557 20.2077 12.024 20.2333 12.0864C20.2589 12.1488 20.3016 12.2027 20.3566 12.2418C21.164 12.8524 21.845 13.6142 22.3616 14.4849C22.5019 14.724 22.624 14.9735 22.7267 15.231C22.8124 15.4533 22.9267 15.7438 23.2156 15.7279C23.4411 15.7168 23.5331 15.5247 23.5951 15.3326C23.8896 14.3338 23.9813 13.2861 23.8649 12.2513C23.782 11.6875 23.6524 11.1316 23.4776 10.5892C23.4511 10.4579 23.3897 10.3361 23.2998 10.2368C23.2425 10.1848 23.1699 10.1529 23.0929 10.1457C23.0159 10.1385 22.9386 10.1566 22.8727 10.1971C22.8103 10.2477 22.7566 10.3083 22.714 10.3765C22.4494 10.7324 22.1095 11.0257 21.7186 11.2353C21.5215 11.3401 21.314 11.4242 21.0995 11.4861C20.9201 11.5385 20.7376 11.5465 20.5645 11.583Z" fill="#C21E31" transform="matrix(1, 0, 0, 1, 0, -2.220446049250313e-16)"/>
</svg>